<svg width="63" height="49" viewBox="0 0 63 49" fill="none" xmlns="http://www.w3.org/2000/svg">
    <path d="M50.4477 5.66645C50.4477 2.53695 47.9098 0 44.7791 0C41.6483 0 39.1104 2.53695 39.1104 5.66645C39.1104 8.79596 41.6483 11.3329 44.7791 11.3329C47.9098 11.3329 50.4477 8.79596 50.4477 5.66645Z" fill="#EFA9AE"/>
    <path d="M26.7786 2.73242H8.80566V8.60024H26.7786V2.73242Z" fill="#EFA9AE"/>
    <path d="M53.7116 15.9805C53.7116 31.162 44.6359 41.3444 31.0195 41.3444C17.4032 41.3444 8.33328 31.162 8.33328 15.9805H0C0 35.6031 12.4136 48.7712 31.0195 48.7712C49.6255 48.7712 62.0276 35.6261 62.0276 15.9805H53.7116Z" fill="#EFA9AE"/>
    </svg>
    