<svg width="1920" height="1080" viewBox="0 0 1920 1080" fill="none" xmlns="http://www.w3.org/2000/svg">
    <g clip-path="url(#clip0)">
        <rect width="1920" height="1080" fill="#02021E" />
        <path d="M505.162 1128.41C522.34 1081.44 529.623 1033.8 526.892 986.723C524.118 939.362 511.165 893.156 488.916 851.255C466.102 807.917 433.704 768.42 392.616 733.844C351.528 699.269 307.069 674.089 260.47 659.015C215.385 644.256 167.648 639.391 120.513 644.751C73.6626 650.089 27.9701 665.42 -15.4062 690.345C-59.2807 715.583 -99.8919 750.207 -136.122 793.261L-149 808.564L-47.1602 894.263L-34.2828 878.96C16.0871 819.103 75.8868 782.722 138.655 773.736C200.623 764.861 261.121 783.515 313.671 827.736C366.22 871.957 394.952 928.391 396.781 990.951C398.652 1054.33 373.015 1119.46 322.645 1179.32L309.768 1194.62L411.531 1280.26L424.408 1264.95C460.622 1221.87 487.798 1175.94 505.162 1128.41Z" fill="#DEEFF4" />
        <path d="M637.482 606.673C626.893 456.71 496.732 343.731 346.769 354.321C196.807 364.91 83.821 495.064 94.4103 645.026L637.482 606.673Z" fill="#6E44FF" />
        <path d="M6.28992 555.58C86.5314 555.58 151.58 490.531 151.58 410.29C151.58 330.049 86.5314 265 6.28992 265C-73.9515 265 -139 330.049 -139 410.29C-139 490.531 -73.9515 555.58 6.28992 555.58Z" fill="#EFA9AE" />
        <path d="M925.162 540L724 642.763L826.763 843.925L1027.92 741.162L925.162 540Z" fill="white" />
        <path d="M1180.68 1301.99L1276.09 1169.4L508.408 616.995L413 749.585L1180.68 1301.99Z" fill="#EFA9AE" />
        <path d="M1715.15 436.3C1828.45 436.3 1920.3 344.451 1920.3 231.15C1920.3 117.849 1828.45 26 1715.15 26C1601.85 26 1510 117.849 1510 231.15C1510 344.451 1601.85 436.3 1715.15 436.3Z" fill="#DEEFF4" />
        <path d="M1476.21 1476.42C1626.55 1476.42 1748.42 1354.55 1748.42 1204.21C1748.42 1053.87 1626.55 932 1476.21 932C1325.87 932 1204 1053.87 1204 1204.21C1204 1354.55 1325.87 1476.42 1476.21 1476.42Z" fill="#DEEFF4" />
        <rect width="1920" height="1080" fill="black" fill-opacity="0.3" />
    </g>
    <defs>
        <clipPath id="clip0">
            <rect width="1920" height="1080" fill="white" />
        </clipPath>
    </defs>
</svg>
    