<svg width="108" height="86" viewBox="0 0 108 86" fill="none" xmlns="http://www.w3.org/2000/svg">
<path d="M87.66 10.8207C87.66 5.3807 83.25 0.970703 77.81 0.970703C72.37 0.970703 67.96 5.3807 67.96 10.8207C67.96 16.2607 72.37 20.6707 77.81 20.6707C83.25 20.6707 87.66 16.2607 87.66 10.8207Z" fill="#EFA9AE"/>
<path d="M46.5298 5.7207H15.2998V15.9207H46.5298V5.7207Z" fill="#EFA9AE"/>
<path d="M93.33 28.75C93.33 55.14 77.56 72.84 53.9 72.84C30.24 72.84 14.48 55.14 14.48 28.75H0C0 62.86 21.57 85.75 53.9 85.75C86.23 85.75 107.78 62.9 107.78 28.75H93.33Z" fill="#EFA9AE"/>
</svg>
