<svg width="718" height="130" viewBox="0 0 718 130" fill="none" xmlns="http://www.w3.org/2000/svg">
<path d="M258.33 29.0803H270.08V38.4803C275.22 32.0203 284.47 27.6104 292.98 27.6104C311.34 27.6104 323.52 39.3603 323.52 56.9703V102.49H311.78V59.0303C311.78 46.4003 303.41 37.8903 290.93 37.8903C278.45 37.8903 270.08 46.4003 270.08 59.0303V102.49H258.33V29.0803Z" fill="white"/>
<path d="M370.06 93.6804C355.67 93.6804 345.69 83.4003 345.06 68.1303L406.87 68.0803C406.87 44.4403 392.19 27.6104 370.02 27.6104C347.85 27.6104 333.21 42.9003 333.21 65.7803C333.21 88.6603 347.89 103.96 370.06 103.96C378.012 103.998 385.758 101.436 392.12 96.6647C398.481 91.8936 403.109 85.1745 405.3 77.5303H393.55C390.32 87.2203 380.92 93.6804 370.06 93.6804ZM370.06 37.8903C382.83 37.8903 391.64 45.0803 394.43 57.8903H345.69C348.48 45.0803 357.29 37.9003 370.06 37.9003V37.8903Z" fill="white"/>
<path d="M482.08 46.8405C488.54 42.2905 492.94 34.2205 492.94 26.8405C492.94 11.7105 481.05 1.73047 463.14 1.73047H419.53V102.491H469.78C488.43 102.491 500.91 91.0405 500.91 73.8605C500.919 67.9698 499.117 62.2187 495.749 57.3858C492.381 52.5529 487.61 48.8717 482.08 46.8405ZM432.78 13.5205H463.17C473.17 13.5205 479.76 19.3905 479.76 28.0505C479.76 36.7105 473.15 42.5905 463.17 42.5905H432.78V13.5205ZM469.78 90.7405H432.78V54.3305H469.92C480.64 54.3305 487.69 61.6705 487.69 72.6805C487.69 83.6905 480.46 90.7405 469.78 90.7405Z" fill="white"/>
<path d="M523.771 1.77051H512.021V102.491H523.771V1.77051Z" fill="white"/>
<path d="M553.13 29.0801H541.38V102.49H553.13V29.0801Z" fill="white"/>
<path d="M547.26 0.890625H547.25C543.263 0.890625 540.03 4.12313 540.03 8.11063V8.12064C540.03 12.1081 543.263 15.3406 547.25 15.3406H547.26C551.248 15.3406 554.48 12.1081 554.48 8.12064V8.11063C554.48 4.12313 551.248 0.890625 547.26 0.890625Z" fill="white"/>
<path d="M567.78 29.0803H579.52V38.4803C584.66 32.0203 593.91 27.6104 602.43 27.6104C620.78 27.6104 632.97 39.3603 632.97 56.9703V102.49H621.22V59.0303C621.22 46.4003 612.85 37.8903 600.37 37.8903C587.89 37.8903 579.52 46.4003 579.52 59.0303V102.49H567.78V29.0803Z" fill="white"/>
<path d="M705.78 29.0803V41.5603C702.722 37.3132 698.713 33.8399 694.074 31.4178C689.435 28.9957 684.293 27.6918 679.06 27.6104C657.19 27.6104 642.65 42.8803 642.65 65.7803C642.65 88.6803 657.19 103.96 679.06 103.96C689.49 103.96 700.21 98.3803 705.78 90.0103V129.8H717.53V29.0803H705.78ZM680.24 93.6804C664.68 93.6804 654.4 82.5203 654.4 65.7803C654.4 58.3003 657.04 50.3704 660.86 46.1104C665.41 41.1104 673.19 37.8903 680.24 37.8903C695.51 37.8903 705.78 49.0503 705.78 65.7803C705.78 82.5103 695.54 93.6804 680.27 93.6804H680.24Z" fill="white"/>
<path d="M198 0C168.49 0 148.811 20.85 148.811 52C148.811 83.15 168.49 104 198 104C227.51 104 247.181 83.16 247.181 52C247.181 20.84 227.5 0 198 0ZM198 92.21C176.42 92.21 162 76.06 162 51.98C162 27.9 176.4 11.75 198 11.75C219.6 11.75 234 27.9 234 51.98C234 76.06 219.58 92.21 198 92.21Z" fill="white"/>
<path d="M87.66 28.8207C87.66 23.3807 83.25 18.9707 77.81 18.9707C72.37 18.9707 67.96 23.3807 67.96 28.8207C67.96 34.2607 72.37 38.6707 77.81 38.6707C83.25 38.6707 87.66 34.2607 87.66 28.8207Z" fill="#EFA9AE"/>
<path d="M46.5298 23.7207H15.2998V33.9207H46.5298V23.7207Z" fill="#EFA9AE"/>
<path d="M93.33 46.75C93.33 73.14 77.56 90.84 53.9 90.84C30.24 90.84 14.48 73.14 14.48 46.75H0C0 80.86 21.57 103.75 53.9 103.75C86.23 103.75 107.78 80.9 107.78 46.75H93.33Z" fill="#EFA9AE"/>
</svg>
