<svg width="82" height="82" viewBox="0 0 82 82" fill="none" xmlns="http://www.w3.org/2000/svg">
<path d="M41.0003 20.1582C44.9637 20.1582 48.1753 23.3698 48.1753 27.3332C48.1753 31.2965 44.9637 34.5082 41.0003 34.5082C37.037 34.5082 33.8253 31.2965 33.8253 27.3332C33.8253 23.3698 37.037 20.1582 41.0003 20.1582ZM41.0003 50.9082C51.1478 50.9082 61.842 55.8965 61.842 58.0832V61.8415H20.1587V58.0832C20.1587 55.8965 30.8528 50.9082 41.0003 50.9082ZM41.0003 13.6665C33.4495 13.6665 27.3337 19.7823 27.3337 27.3332C27.3337 34.884 33.4495 40.9998 41.0003 40.9998C48.5512 40.9998 54.667 34.884 54.667 27.3332C54.667 19.7823 48.5512 13.6665 41.0003 13.6665ZM41.0003 44.4165C31.8778 44.4165 13.667 48.9948 13.667 58.0832V68.3332H68.3337V58.0832C68.3337 48.9948 50.1228 44.4165 41.0003 44.4165Z" fill="white"/>
</svg>
